<svg width="280" height="280" viewBox="0 0 280 280" fill="none" xmlns="http://www.w3.org/2000/svg">
<rect width="280" height="280" rx="32" fill="#C6BEAC"/>
<g clip-path="url(#clip0_2690_31)">
<path d="M167.233 150.308C185.856 157.358 210.923 156.073 226.883 147.25L240 140L226.883 132.75C210.923 123.927 185.857 122.643 167.233 129.692L153.267 134.978C153.18 134.697 153.075 134.425 152.972 134.152L166.546 128.032C184.7 119.848 201.515 101.215 206.563 83.6907L210.711 69.2888L196.309 73.4367C178.785 78.4842 160.152 95.3 151.967 113.453L146.057 126.564C145.784 126.432 145.511 126.3 145.229 126.185L150.308 112.767C157.357 94.1433 156.072 69.0767 147.25 53.1163L140 40L132.75 53.1167C123.927 69.0772 122.643 94.1433 129.692 112.767L134.771 126.186C134.488 126.301 134.215 126.432 133.943 126.565L128.032 113.454C119.848 95.3005 101.215 78.4846 83.6907 73.4372L69.2888 69.2893L73.4367 83.6912C78.4842 101.215 95.3 119.848 113.453 128.033L127.027 134.152C126.925 134.426 126.819 134.697 126.733 134.979L112.767 129.692C94.1433 122.643 69.0767 123.928 53.1163 132.75L40 140L53.1167 147.25C69.0772 156.073 94.1433 157.358 112.767 150.308L127.386 144.775C127.501 145.027 127.617 145.28 127.747 145.524L113.454 151.968C95.3005 160.152 78.4847 178.785 73.4372 196.309L69.2893 210.711L83.6912 206.563C101.215 201.516 119.848 184.7 128.033 166.547L134.666 151.834C134.911 151.936 135.165 152.02 135.417 152.109L129.692 167.234C122.643 185.857 123.928 210.924 132.75 226.884L140 240.001L147.251 226.884C156.073 210.924 157.358 185.858 150.309 167.234L144.583 152.108C144.835 152.02 145.09 151.936 145.335 151.833L151.968 166.546C160.152 184.7 178.785 201.515 196.309 206.563L210.711 210.711L206.563 196.309C201.516 178.785 184.7 160.152 166.547 151.967L152.253 145.524C152.383 145.28 152.499 145.027 152.614 144.774L167.233 150.308Z" fill="black"/>
</g>
<defs>
<clipPath id="clip0_2690_31">
<rect width="200" height="200" fill="white" transform="translate(40 40)"/>
</clipPath>
</defs>
</svg>
